<svg width="70" height="70" viewBox="0 0 70 70" fill="none" xmlns="http://www.w3.org/2000/svg">
<path fill-rule="evenodd" clip-rule="evenodd" d="M61.7212 6.84197C61.6878 6.69259 61.6132 6.55554 61.506 6.44631C61.3988 6.33708 61.2631 6.26002 61.1144 6.22386L58.8585 5.67562L58.0314 3.50685C57.9769 3.36381 57.8834 3.23888 57.7615 3.1462C57.6397 3.05351 57.4944 2.99677 57.342 2.98239C57.1895 2.96801 57.0362 2.99656 56.8991 3.06482C56.7621 3.13307 56.6469 3.23831 56.5666 3.36863L55.3484 5.34463L53.0299 5.46111C52.8771 5.46878 52.7294 5.51907 52.6036 5.60629C52.4778 5.6935 52.379 5.81418 52.3182 5.95465C52.2574 6.09513 52.2371 6.24981 52.2597 6.40121C52.2822 6.5526 52.3467 6.69467 52.4457 6.81134L53.9492 8.58062L53.3437 10.8216C53.3038 10.9693 53.306 11.1253 53.3501 11.2719C53.3942 11.4185 53.4784 11.5498 53.5932 11.651C53.7081 11.7522 53.8489 11.8193 53.9999 11.8446C54.1508 11.8699 54.3059 11.8525 54.4474 11.7943L56.5939 10.912L58.5382 12.1806C58.6664 12.2642 58.8154 12.3103 58.9685 12.3136C59.1215 12.317 59.2724 12.2774 59.4042 12.1995C59.5359 12.1215 59.6432 12.0083 59.7139 11.8725C59.7846 11.7368 59.816 11.584 59.8044 11.4313L59.6285 9.11656L61.4354 7.65955C61.5546 7.5635 61.6445 7.43602 61.695 7.29154C61.7455 7.14706 61.7545 6.99133 61.7212 6.84197ZM24.9182 10.4075C24.1285 10.2316 23.3012 10.3767 22.6184 10.8108C21.9356 11.2449 21.4532 11.9325 21.2774 12.7223L19.2201 21.9629L21.919 20.2469C21.961 20.2043 22.0076 20.1665 22.0578 20.1341L26.5573 17.2803L27.2308 14.0588C27.4082 13.268 27.2643 12.439 26.8306 11.7543C26.3969 11.0696 25.709 10.5851 24.9182 10.4075ZM67.0183 14.7992C67.8343 14.7992 68.4957 14.1377 68.4957 13.3218C68.4957 12.5058 67.8343 11.8444 67.0183 11.8444C66.2024 11.8444 65.5409 12.5058 65.5409 13.3218C65.5409 14.1377 66.2024 14.7992 67.0183 14.7992ZM18.4009 24.4277L14.7693 26.7368L19.2039 33.7113L26.6906 28.9514L22.2559 21.9766L18.4597 24.3905C18.4406 24.4042 18.4209 24.4161 18.4009 24.4277ZM6.1481 27.14C5.714 26.4573 5.56889 25.63 5.74469 24.8403C5.9214 24.051 6.40397 23.364 7.08654 22.93C7.76911 22.4961 8.59595 22.3506 9.38565 22.5255L16.0143 24.0007L13.3508 25.6941C13.2948 25.714 13.2411 25.7399 13.1907 25.7713L8.65598 28.614L8.05948 28.4811C7.26974 28.3052 6.5822 27.8228 6.1481 27.14ZM35.5358 14.1413C35.7803 14.1414 36.024 14.1684 36.2626 14.2217C36.6879 14.3152 37.0903 14.4922 37.4467 14.7422C37.8031 14.9923 38.1064 15.3106 38.339 15.6787L40.9953 19.8563L28.0754 28.0711L23.6406 21.0966L33.7638 14.66C34.2929 14.3216 34.9078 14.1417 35.5358 14.1413ZM13.3853 27.6172L3.04052 34.1946C2.2995 34.667 1.77611 35.414 1.58516 36.2718C1.39421 37.1295 1.5513 38.028 2.02197 38.7702L4.678 42.9477L17.8201 34.5918L13.3853 27.6172ZM43.2709 67.0209H32.6527V42.311H46.5855V63.7063C46.5845 64.5851 46.235 65.4276 45.6136 66.049C44.9922 66.6703 44.1497 67.0199 43.2709 67.0209ZM9.38811 63.7063C9.38912 64.5851 9.73866 65.4276 10.3601 66.049C10.9814 66.6703 11.8239 67.0199 12.7027 67.0209H20.585V42.311H9.3877L9.38811 63.7063ZM31.0117 42.311H22.2256V67.0208H31.0117V42.311ZM56.5783 33.2185L56.9707 30.9307C56.9965 30.7798 56.9797 30.6247 56.922 30.4829C56.8643 30.3411 56.7681 30.2183 56.6443 30.1283C56.5205 30.0384 56.3739 29.9848 56.2213 29.9738C56.0686 29.9628 55.9159 29.9947 55.7804 30.0659L53.7258 31.146L51.6712 30.0659C51.5357 29.9947 51.3829 29.9627 51.2303 29.9737C51.0776 29.9847 50.931 30.0383 50.8071 30.1282C50.6833 30.2182 50.5871 30.341 50.5294 30.4829C50.4717 30.6247 50.4549 30.7798 50.4808 30.9307L50.8733 33.2185L49.2109 34.8388C49.1013 34.9456 49.0238 35.081 48.9871 35.2296C48.9504 35.3782 48.9561 35.5341 49.0034 35.6797C49.0507 35.8253 49.1378 35.9547 49.2548 36.0534C49.3719 36.152 49.5142 36.216 49.6656 36.238L51.9625 36.572L52.9898 38.6534C53.0575 38.7907 53.1623 38.9063 53.2924 38.9871C53.4224 39.068 53.5724 39.1108 53.7255 39.1108C53.8786 39.1108 54.0286 39.068 54.1586 38.9871C54.2887 38.9063 54.3935 38.7907 54.4612 38.6534L55.4883 36.572L57.7852 36.238C57.9367 36.2159 58.079 36.152 58.196 36.0533C58.313 35.9547 58.4001 35.8252 58.4474 35.6797C58.4947 35.5341 58.5003 35.3782 58.4636 35.2296C58.4269 35.081 58.3494 34.9456 58.2398 34.8388L56.5783 33.2185ZM63.7571 21.3676L66.0129 21.9158C66.1616 21.952 66.2972 22.0291 66.4044 22.1383C66.5116 22.2475 66.5862 22.3845 66.6196 22.5338C66.653 22.6832 66.6439 22.8389 66.5935 22.9833C66.543 23.1278 66.4532 23.2553 66.3341 23.3514L64.5273 24.8084L64.703 27.1229C64.7146 27.2755 64.6833 27.4284 64.6126 27.5641C64.5418 27.6999 64.4345 27.8131 64.3028 27.8911C64.1711 27.969 64.0202 28.0085 63.8671 28.0052C63.7141 28.0019 63.5651 27.9558 63.4369 27.8721L61.4926 26.6038L59.3461 27.4862C59.2045 27.5444 59.0495 27.5618 58.8985 27.5365C58.7475 27.5111 58.6066 27.4441 58.4918 27.3428C58.377 27.2416 58.2927 27.1103 58.2487 26.9637C58.2046 26.8171 58.2024 26.6611 58.2424 26.5133L58.8469 24.2726L57.3443 22.5032C57.2452 22.3865 57.1808 22.2445 57.1582 22.0931C57.1357 21.9417 57.1559 21.787 57.2167 21.6466C57.2774 21.5061 57.3763 21.3854 57.5021 21.2982C57.6278 21.211 57.7755 21.1606 57.9283 21.153L60.2467 21.0365L61.465 19.0605C61.5453 18.9302 61.6605 18.8249 61.7975 18.7567C61.9346 18.6884 62.088 18.6599 62.2404 18.6743C62.3928 18.6887 62.5381 18.7454 62.66 18.8381C62.7818 18.9308 62.8753 19.0558 62.9298 19.1988L63.7571 21.3676ZM39.0663 33.3369C40.7668 32.2665 43.6281 31.1971 47.6028 32.1806H47.6025C47.7079 32.2057 47.8073 32.2514 47.895 32.3151C47.9827 32.3788 48.0569 32.4592 48.1133 32.5518C48.1697 32.6443 48.2072 32.7471 48.2236 32.8542C48.2401 32.9613 48.2351 33.0706 48.2091 33.1758C48.183 33.281 48.1364 33.38 48.0719 33.467C48.0074 33.5541 47.9263 33.6275 47.8332 33.6831C47.7402 33.7386 47.6371 33.7752 47.5298 33.7906C47.4225 33.8061 47.3133 33.8001 47.2083 33.7731C40.7482 32.1752 37.7803 36.6614 37.6573 36.8528C37.5408 37.0366 37.3561 37.1665 37.1438 37.2141C36.9314 37.2616 36.7089 37.2229 36.5252 37.1064C36.3414 36.9899 36.2115 36.8052 36.164 36.5928C36.1164 36.3805 36.1551 36.158 36.2716 35.9743C36.3095 35.9147 37.215 34.5024 39.0663 33.3369ZM38.5611 29.2936C38.5123 29.3902 38.4831 29.4955 38.4751 29.6034C38.4672 29.7113 38.4806 29.8198 38.5148 29.9225C38.5489 30.0252 38.6031 30.1201 38.674 30.2018C38.745 30.2835 38.8315 30.3503 38.9284 30.3984C39.0254 30.4466 39.1309 30.475 39.2389 30.4822C39.3469 30.4894 39.4552 30.4751 39.5576 30.4402C39.6601 30.4053 39.7546 30.3505 39.8358 30.2789C39.917 30.2073 39.9832 30.1204 40.0306 30.0231C40.9346 28.3763 42.1646 26.9308 43.6454 25.7747C46.8295 23.3237 50.5261 22.9446 54.6323 24.6494C54.7318 24.6907 54.8384 24.712 54.9462 24.712C55.0539 24.7121 55.1606 24.691 55.2602 24.6498C55.3597 24.6086 55.4502 24.5483 55.5264 24.4722C55.6026 24.396 55.6631 24.3056 55.7044 24.2061C55.7457 24.1066 55.767 24 55.7671 23.8922C55.7672 23.7845 55.746 23.6778 55.7049 23.5783C55.6637 23.4787 55.6033 23.3882 55.5272 23.312C55.4511 23.2358 55.3607 23.1753 55.2612 23.134C49.4214 20.7104 45.1771 22.5253 42.6448 24.4748C40.9649 25.7813 39.5744 27.4221 38.5611 29.2936ZM45.821 18.0944C46.0147 17.9953 46.2398 17.9771 46.4468 18.044C46.5059 18.0629 50.2445 19.2226 52.9682 17.6031C54.4002 16.7512 55.3297 15.2474 55.7314 13.1336C55.7515 13.0278 55.7923 12.9269 55.8514 12.8369C55.9104 12.7468 55.9867 12.6692 56.0758 12.6086C56.1648 12.548 56.2649 12.5055 56.3704 12.4836C56.4759 12.4617 56.5846 12.4608 56.6905 12.4809C56.7963 12.501 56.8971 12.5418 56.9872 12.6009C57.0773 12.66 57.1548 12.7362 57.2155 12.8253C57.2761 12.9143 57.3185 13.0145 57.3405 13.1199C57.3624 13.2254 57.3633 13.3342 57.3432 13.44C56.8492 16.0394 55.6569 17.9164 53.7975 19.0181C52.3767 19.8602 50.7923 20.1079 49.4205 20.1079C48.2431 20.1073 47.0719 19.9381 45.9426 19.6053C45.7356 19.5385 45.5636 19.3921 45.4644 19.1984C45.3653 19.0047 45.3472 18.7796 45.4141 18.5725C45.4809 18.3655 45.6273 18.1935 45.821 18.0944ZM34.5715 39.768C35.3875 39.768 36.0489 39.1066 36.0489 38.2906C36.0489 37.4747 35.3875 36.8132 34.5715 36.8132C33.7556 36.8132 33.0942 37.4747 33.0942 38.2906C33.0942 39.1066 33.7556 39.768 34.5715 39.768ZM47.6723 11.4934C47.6723 12.3094 47.0108 12.9708 46.1949 12.9708C45.379 12.9708 44.7175 12.3094 44.7175 11.4934C44.7175 10.6775 45.379 10.016 46.1949 10.016C47.0108 10.016 47.6723 10.6775 47.6723 11.4934ZM32.4894 32.9264C33.3054 32.9264 33.9668 32.2649 33.9668 31.449C33.9668 30.633 33.3054 29.9716 32.4894 29.9716C31.6735 29.9716 31.012 30.633 31.012 31.449C31.012 32.2649 31.6735 32.9264 32.4894 32.9264ZM66.0632 33.8541C66.0632 34.67 65.4018 35.3315 64.5859 35.3315C63.7699 35.3315 63.1085 34.67 63.1085 33.8541C63.1085 33.0382 63.7699 32.3767 64.5859 32.3767C65.4018 32.3767 66.0632 33.0382 66.0632 33.8541Z" fill="url(#paint0_linear)"/>
<defs>
<linearGradient id="paint0_linear" x1="1.50586" y1="71.2904" x2="72.3501" y2="66.6972" gradientUnits="userSpaceOnUse">
<stop stop-color="#4481EB"/>
<stop offset="1" stop-color="#04BEFE"/>
</linearGradient>
</defs>
</svg>
