<svg width="70" height="70" viewBox="0 0 70 70" fill="none" xmlns="http://www.w3.org/2000/svg">
<g clip-path="url(#clip0)">
<path fill-rule="evenodd" clip-rule="evenodd" d="M0.205078 0H7.66646V17.4099H0.205078V0ZM57.0105 27.6457C57.4046 27.5837 57.7204 27.288 57.8084 26.8994C57.8959 26.5102 57.738 26.1076 57.4089 25.8823L46.7997 18.3936C45.3467 18.5734 43.8918 18.076 42.8517 17.0456L39.3699 13.5639C39.0414 14.1918 38.5869 14.7276 38.0468 15.1469C38.0389 15.1525 38.031 15.1581 38.0231 15.1639L37.8257 15.3088C37.0174 15.8662 36.0435 16.1762 35.0247 16.1664H33.8644L20.102 25.886C19.6709 26.1981 19.5616 26.7931 19.853 27.2376C20.0443 27.5024 20.3509 27.6584 20.6776 27.6572C20.8865 27.6566 21.0893 27.5904 21.2581 27.4677L37.8257 15.3088C37.9008 15.257 37.9746 15.203 38.0468 15.1469C38.4822 14.8422 39.065 14.8478 39.495 15.1639L56.271 27.4756C56.4841 27.6305 56.7513 27.6924 57.0105 27.6457ZM49.9475 25.9234V43.5246H39.999V34.8196C39.999 34.1329 39.4422 33.5761 38.7555 33.5761H31.2941C30.6073 33.5761 30.0505 34.1329 30.0505 34.8196V43.5246H27.5634V25.9234L38.7555 17.7085L49.9475 25.9234ZM48.704 39.7939V34.8196C48.704 34.1329 48.1472 33.5761 47.4604 33.5761H42.4862C41.7994 33.5761 41.2426 34.1329 41.2426 34.8196V39.7939C41.2426 40.4806 41.7994 41.0375 42.4862 41.0375H47.4604C48.1472 41.0375 48.704 40.4806 48.704 39.7939ZM35.0248 24.8711C35.0248 26.9314 36.6952 28.6018 38.7555 28.6018C40.8157 28.6018 42.4862 26.9314 42.4862 24.8711C42.4862 22.8109 40.8157 21.1404 38.7555 21.1404C36.6952 21.1404 35.0248 22.8109 35.0248 24.8711ZM21.8059 55.1915C21.6875 56.412 22.4283 57.5518 23.5917 57.9385L48.7186 67.0837L55.8497 64.6761C56.1168 64.5851 56.4077 64.5887 56.6724 64.6865L57.8419 65.1103L62.0948 53.4209L54.2849 50.578L37.716 53.5041C36.841 53.662 36.1154 54.2716 35.8094 55.1059C35.7699 55.2061 35.7414 55.3099 35.7238 55.4156C35.7189 55.4575 35.7116 55.4988 35.7025 55.5401C35.6466 55.8224 35.6448 56.1133 35.6964 56.3968C35.943 57.7436 37.229 58.6399 38.5776 58.4049L52.5762 55.9366L53.0092 58.3855L39.0039 60.8574C36.2994 61.3298 33.7218 59.5252 33.2403 56.8219C33.2069 56.5954 33.1887 56.3671 33.1844 56.1382L25.1158 53.2011C24.4108 52.9473 23.6294 53.0244 22.9869 53.41C22.3439 53.7956 21.9085 54.4489 21.8005 55.1903L21.8059 55.1915ZM59.3277 68.2989L65.2826 51.9389L69.9569 53.6403L64.002 70.0003L59.3277 68.2989ZM43.7301 36.0633H46.2172V38.5504H43.7301V36.0633ZM38.7558 26.1147C39.4425 26.1147 39.9993 25.5578 39.9993 24.8711C39.9993 24.1843 39.4425 23.6275 38.7558 23.6275C38.069 23.6275 37.5122 24.1843 37.5122 24.8711C37.5122 25.5578 38.069 26.1147 38.7558 26.1147ZM37.5122 36.0633H32.5379V43.5247H37.5122V36.0633ZM33.1784 2.0515e-05C34.8282 -0.00422995 36.4112 0.652162 37.574 1.82165L47.6919 11.9383C48.5086 12.7022 48.6926 13.9282 48.1358 14.8979C47.7459 15.4541 47.1357 15.8154 46.4605 15.8901C45.7853 15.9641 45.1106 15.7449 44.6091 15.2871L39.9409 10.6189C39.6561 8.11719 37.5424 6.22512 35.0249 6.21784H23.8328V8.70496H35.0249C36.3984 8.70496 37.512 9.81858 37.512 11.1921C37.512 12.5656 36.3984 13.6792 35.0249 13.6792H26.32C25.6332 13.6792 25.0764 14.236 25.0764 14.9228C25.0764 16.8057 21.996 18.6535 18.8586 18.6535C15.7211 18.6535 12.6408 16.8057 12.6408 14.9228C12.6408 14.236 12.084 13.6792 11.3972 13.6792H10.1536V3.73071H11.3972C11.5654 3.73132 11.7324 3.69671 11.8872 3.62991L20.3505 2.0515e-05H33.1784Z" fill="url(#paint0_linear)"/>
</g>
<defs>
<linearGradient id="paint0_linear" x1="0.205078" y1="74.667" x2="73.9988" y2="70.1093" gradientUnits="userSpaceOnUse">
<stop stop-color="#4481EB"/>
<stop offset="1" stop-color="#04BEFE"/>
</linearGradient>
<clipPath id="clip0">
<rect width="70" height="70" fill="white"/>
</clipPath>
</defs>
</svg>
