<svg width="70" height="70" viewBox="0 0 70 70" fill="none" xmlns="http://www.w3.org/2000/svg">
<g clip-path="url(#clip0)">
<path fill-rule="evenodd" clip-rule="evenodd" d="M42.4282 15.1002C42.3255 15.0738 42.2387 15.0053 42.1894 14.9115C42.1401 14.8179 42.1322 14.7077 42.1685 14.6074L46.6455 2.21444C46.9501 1.37101 47.5649 0.696517 48.3773 0.315305C49.1738 -0.0586793 50.1169 -0.102341 50.9451 0.196967C51.789 0.501996 52.4638 1.11717 52.8445 1.92913C53.2254 2.74139 53.2673 3.65331 52.9624 4.49704L47.776 18.8536C47.7269 18.9891 47.605 19.0845 47.4618 19.1C47.4482 19.1014 47.435 19.1022 47.4216 19.1022C47.2932 19.1022 47.1721 19.0361 47.1029 18.9257L46.1179 17.3539C45.491 16.3533 44.5219 15.6408 43.3891 15.3485L42.4282 15.1002ZM36.5112 10.139L35.8332 9.76729C35.6705 9.67816 35.5971 9.48379 35.6601 9.30929L37.3752 4.56297C37.6796 3.7197 38.2945 3.04505 39.1066 2.66399C39.9043 2.28986 40.8465 2.24634 41.6747 2.54565C42.5182 2.85038 43.1929 3.46541 43.574 4.27751C43.9552 5.08977 43.9969 6.0017 43.692 6.84542L40.1394 16.6792C40.0849 16.8292 39.9427 16.9275 39.7853 16.9275C39.7749 16.9275 39.7644 16.927 39.7539 16.9261C39.5843 16.912 39.4454 16.7858 39.4148 16.6186L38.8145 13.3235C38.5673 11.9665 37.7278 10.8058 36.5112 10.139ZM45.4565 20.8212C45.4565 18.9694 43.9499 17.4628 42.0981 17.4628C40.2461 17.4628 38.7394 18.9694 38.7394 20.8212V33.8297H37.535V15.1975C37.535 13.3456 36.0285 11.8391 34.1765 11.8391C32.3248 11.8391 30.8182 13.3456 30.8182 15.1975V33.8295H29.6137V9.83958C29.6137 7.98773 28.1071 6.4811 26.2551 6.4811C24.4032 6.4811 22.8967 7.98773 22.8967 9.83958V33.8297H21.6923V15.1975C21.6923 13.3456 20.1856 11.8391 18.3336 11.8391C16.4818 11.8391 14.9751 13.3456 14.9751 15.1975V36.4616L11.1197 32.0096C10.4301 31.2135 9.58414 30.6986 8.73785 30.56C8.58158 30.5344 8.42424 30.5215 8.26992 30.5215C7.56275 30.5215 6.90226 30.783 6.30726 31.2988C4.63742 32.7448 4.39458 34.6069 5.56922 37L14.9884 55.0082L13.7436 69.5917C13.7346 69.6967 13.7702 69.8007 13.8411 69.8783C13.9127 69.9559 14.0132 70.0001 14.1186 70.0001H46.3751C46.4806 70.0001 46.5815 69.9556 46.6529 69.8778C46.7244 69.7997 46.7596 69.6956 46.7501 69.5904L45.4562 55.0706V20.8212H45.4565ZM60.3737 16.0267C61.1708 15.6526 62.1134 15.6092 62.9416 15.9082C64.6836 16.5377 65.5887 18.4667 64.96 20.2077L53.3257 52.4131L49.4416 65.9826C49.3952 66.1455 49.2463 66.2554 49.0801 66.2554C49.0684 66.2554 49.0563 66.2548 49.0443 66.2537C48.8638 66.2363 48.7209 66.0928 48.7051 65.9123L47.6417 53.9392C47.6406 53.9281 47.6402 53.9171 47.6402 53.9059V25.1338C47.6402 25.0901 47.6476 25.0468 47.6625 25.0058L53.1042 9.94271C53.5855 8.61781 54.8555 7.72786 56.2644 7.72786C56.653 7.72786 57.0359 7.79516 57.4029 7.9278C59.1444 8.55698 60.0496 10.4858 59.4207 12.2273L53.0899 29.7509L54.2226 30.1605L58.6429 17.9244C58.9476 17.0815 59.5624 16.4075 60.3737 16.0267Z" fill="url(#paint0_linear)"/>
</g>
<defs>
<linearGradient id="paint0_linear" x1="4.83984" y1="74.6667" x2="68.7163" y2="71.255" gradientUnits="userSpaceOnUse">
<stop stop-color="#4481EB"/>
<stop offset="1" stop-color="#04BEFE"/>
</linearGradient>
<clipPath id="clip0">
<rect width="70" height="70" fill="white"/>
</clipPath>
</defs>
</svg>
