<svg width="70" height="70" viewBox="0 0 70 70" fill="none" xmlns="http://www.w3.org/2000/svg">
<g clip-path="url(#clip0)">
<path fill-rule="evenodd" clip-rule="evenodd" d="M58.51 14.3907L69.3997 3.50102C70.1995 2.69985 70.1995 1.40103 69.3997 0.599853C68.5985 -0.199951 67.2997 -0.199951 66.4985 0.599853L55.6089 11.4895L58.51 14.3907ZM45.4568 24.5425C46.2605 25.3434 47.5542 25.344 48.3585 24.5425C49.1644 23.7338 49.1549 22.4369 48.3585 21.6405C47.5572 20.8418 46.2583 20.8418 45.4568 21.6405C44.6583 22.4406 44.6583 23.7425 45.4568 24.5425ZM62.1689 18.6528L58.1921 14.6761L52.2149 20.652C53.2915 22.9105 52.8957 25.7026 51.0276 27.5707C49.8429 28.7554 48.2854 29.3484 46.7293 29.3484C45.1732 29.3484 43.6158 28.7554 42.4311 27.5707C40.0618 25.2001 40.0618 21.3436 42.4311 18.9743C44.2993 17.1062 47.09 16.7104 49.3485 17.7883L55.3258 11.8097L51.349 7.833C49.9888 6.47275 48.0072 5.99593 46.1769 6.58892L34.4466 10.3833C33.0283 10.8412 31.7221 11.6409 30.6685 12.6945L0.976785 42.3862C0.597214 42.7657 0.383789 43.2804 0.383789 43.818C0.383789 44.3556 0.597214 44.8716 0.976785 45.2512L24.7507 69.0251C25.1302 69.4046 25.6462 69.6181 26.1838 69.6181C26.7215 69.6181 27.2361 69.4046 27.6157 69.0251L28.6711 67.9696C30.6188 69.2532 32.9512 70.0003 35.4579 70.0003C42.2778 70.0003 47.8079 64.4746 47.8079 57.6504C47.8079 55.1083 47.038 52.7442 45.7209 50.7788L36.9158 59.5838L37.7065 63.3329C37.7632 63.6031 37.5583 63.8603 37.2794 63.8603H33.6363C33.3945 63.8603 33.2083 63.6702 33.2001 63.4407L36.9403 59.7004L36.7607 58.8485C36.6822 58.4955 36.839 58.1295 37.1484 57.9334C37.8981 57.4627 38.434 56.687 38.591 55.7849C38.6215 55.6106 38.6389 55.4276 38.6389 55.2402C38.6389 53.4579 37.1703 52.0154 35.3793 52.059C33.6928 52.0983 32.3201 53.471 32.2765 55.1574C32.2722 55.371 32.2896 55.5801 32.3245 55.7806C32.4814 56.687 33.0174 57.4583 33.7669 57.929C34.0763 58.125 34.2288 58.4911 34.1547 58.8485L33.2204 63.2793L28.5865 67.9132C25.2826 65.6966 23.1078 61.927 23.1078 57.6501C23.1078 54.299 24.4413 51.2572 26.6115 49.0303C27.8317 47.7753 29.3133 46.7818 30.9693 46.1368C32.3594 45.5921 33.8759 45.2958 35.4578 45.2958C37.0396 45.2958 38.5562 45.5921 39.9463 46.1368C41.6023 46.7861 43.0839 47.7797 44.3041 49.0303C44.8506 49.5922 45.3443 50.206 45.7772 50.8635L57.3074 39.3334C58.361 38.2798 59.1606 36.9736 59.6186 35.5552L63.4143 23.825C64.0059 21.9947 63.5277 20.0131 62.1689 18.6528ZM40.9439 44.6637C42.1596 45.1779 43.284 45.8534 44.3037 46.677V40.855C44.3037 36.0135 40.3643 32.074 35.5228 32.074H35.3877C30.5506 32.074 26.6111 36.0135 26.6111 40.855V46.677C27.6308 45.8534 28.7552 45.1779 29.971 44.6637C30.2978 44.5242 30.6334 44.3979 30.9689 44.2846V40.855C30.9689 38.4146 32.9517 36.4318 35.3921 36.4318H35.5272C37.9675 36.4318 39.9503 38.4146 39.9503 40.855V44.2889C40.2815 44.3979 40.6171 44.5242 40.9439 44.6637Z" fill="url(#paint0_linear)"/>
</g>
<defs>
<linearGradient id="paint0_linear" x1="-0.000487581" y1="82.2932" x2="74.1039" y2="78.1257" gradientUnits="userSpaceOnUse">
<stop stop-color="#4481EB"/>
<stop offset="1" stop-color="#04BEFE"/>
</linearGradient>
<clipPath id="clip0">
<rect width="70" height="70" fill="white"/>
</clipPath>
</defs>
</svg>
