<svg width="70" height="70" viewBox="0 0 70 70" fill="none" xmlns="http://www.w3.org/2000/svg">
<g clip-path="url(#clip0)">
<path fill-rule="evenodd" clip-rule="evenodd" d="M32.0833 6.0375C35.4958 2.24583 40.4833 0 45.9083 0C55.9708 0 64.1667 7.84583 64.1667 17.5C64.1667 20.5917 63.7 23.5667 62.9125 26.425L55.0958 23.7708C53.4333 23.1875 51.5667 23.1875 49.9042 23.7708L34.6208 28.9625C31.3542 30.0708 29.1667 33.1333 29.1667 36.575V48.2708C29.1667 53.1708 30.625 57.4583 32.8417 61.1333C32.5792 61.2208 32.3458 61.25 32.0833 61.25C31.5583 61.25 31.0333 61.1042 30.5958 60.8417C29.3417 60.0833 0 42.2042 0 17.5C0 7.84583 8.19584 0 18.2583 0C23.6833 0 28.6708 2.24583 32.0833 6.0375ZM53.2029 29.2832L68.5154 34.4923C69.405 34.7927 70 35.624 70 36.5632V48.2823C70 62.5857 54.0342 69.5361 53.3546 69.8277C52.8062 70.0582 52.1938 70.0582 51.6454 69.8277C50.9658 69.539 35 62.5857 35 48.2823V36.5632C35 35.624 35.595 34.7927 36.4846 34.4923L51.7971 29.2832C52.2521 29.1257 52.7479 29.1257 53.2029 29.2832ZM54.0633 55.7607L62.0842 45.5523C63.0817 44.2865 62.86 42.4519 61.5913 41.4632C60.3225 40.4627 58.4908 40.6873 57.4963 41.9532L51.3567 49.7669L48.5625 47.3723C47.3433 46.3252 45.5 46.4652 44.4529 47.6873C43.4 48.9094 43.5429 50.7527 44.7679 51.7998L49.8721 56.1748C51.1292 57.254 53.0425 57.0644 54.0633 55.7607Z" fill="url(#paint0_linear)"/>
</g>
<defs>
<linearGradient id="paint0_linear" x1="2.41514e-07" y1="74.6673" x2="74.0543" y2="70.0772" gradientUnits="userSpaceOnUse">
<stop stop-color="#4481EB"/>
<stop offset="1" stop-color="#04BEFE"/>
</linearGradient>
<clipPath id="clip0">
<rect width="70" height="70" fill="white"/>
</clipPath>
</defs>
</svg>
