<svg width="277" height="75" viewBox="0 0 277 75" fill="none" xmlns="http://www.w3.org/2000/svg">
<path d="M100.614 42.1408C99.169 42.1408 97.7896 41.8968 96.4759 41.4088C95.181 40.9021 94.1676 40.2547 93.4357 39.4665L94.0831 38.3967C94.7775 39.1286 95.7065 39.7292 96.87 40.1984C98.0524 40.6488 99.291 40.874 100.586 40.874C102.463 40.874 103.88 40.5174 104.837 39.8043C105.794 39.0911 106.272 38.1621 106.272 37.0174C106.272 36.1353 106.019 35.4316 105.512 34.9061C105.006 34.3806 104.377 33.9771 103.626 33.6956C102.875 33.4141 101.862 33.1232 100.586 32.8229C99.1408 32.4664 97.9773 32.1192 97.0952 31.7814C96.232 31.4436 95.4907 30.9275 94.8714 30.2331C94.2708 29.5199 93.9705 28.5722 93.9705 27.3899C93.9705 26.4328 94.2239 25.5601 94.7306 24.7719C95.2373 23.9649 96.0068 23.3268 97.0389 22.8577C98.0899 22.3885 99.3942 22.1539 100.952 22.1539C102.04 22.1539 103.11 22.3134 104.161 22.6325C105.212 22.9515 106.122 23.3831 106.892 23.9274L106.357 25.0816C105.569 24.5373 104.696 24.1244 103.739 23.8429C102.8 23.5614 101.871 23.4207 100.952 23.4207C99.1315 23.4207 97.7521 23.7866 96.8137 24.5185C95.8754 25.2505 95.4062 26.1982 95.4062 27.3617C95.4062 28.2438 95.6596 28.9476 96.1663 29.473C96.673 29.9985 97.3017 30.402 98.0524 30.6835C98.803 30.965 99.8258 31.2653 101.121 31.5843C102.566 31.9409 103.72 32.2881 104.583 32.6259C105.447 32.9637 106.178 33.4798 106.779 34.1742C107.398 34.8498 107.708 35.7694 107.708 36.9329C107.708 37.89 107.445 38.7627 106.92 39.5509C106.413 40.3391 105.625 40.9678 104.555 41.437C103.485 41.9062 102.172 42.1408 100.614 42.1408ZM116.086 23.5896H108.992V22.2947H124.615V23.5896H117.522V42H116.086V23.5896ZM135.504 42.1408C133.008 42.1408 131.066 41.4182 129.677 39.9732C128.307 38.5281 127.622 36.4168 127.622 33.6393V22.2947H129.058V33.583C129.058 36.0039 129.611 37.815 130.719 39.016C131.826 40.2171 133.43 40.8177 135.532 40.8177C137.615 40.8177 139.211 40.2171 140.318 39.016C141.425 37.815 141.979 36.0039 141.979 33.583V22.2947H143.414V33.6393C143.414 36.4168 142.72 38.5281 141.331 39.9732C139.943 41.4182 138 42.1408 135.504 42.1408ZM150.113 22.2947H157.911C159.957 22.2947 161.768 22.7169 163.344 23.5614C164.939 24.4059 166.178 25.5789 167.06 27.0802C167.942 28.5628 168.383 30.2519 168.383 32.1473C168.383 34.0428 167.942 35.7412 167.06 37.2426C166.178 38.7252 164.939 39.8887 163.344 40.7332C161.768 41.5777 159.957 42 157.911 42H150.113V22.2947ZM157.798 40.7051C159.619 40.7051 161.223 40.3485 162.612 39.6354C164.001 38.9034 165.071 37.89 165.821 36.5951C166.572 35.3002 166.947 33.8176 166.947 32.1473C166.947 30.4771 166.572 28.9945 165.821 27.6995C165.071 26.4046 164.001 25.4006 162.612 24.6874C161.223 23.9555 159.619 23.5896 157.798 23.5896H151.549V40.7051H157.798ZM173.371 22.2947H174.806V42H173.371V22.2947ZM190.033 42.1408C188.1 42.1408 186.355 41.7091 184.797 40.8458C183.24 39.9638 182.011 38.7627 181.11 37.2426C180.228 35.7224 179.787 34.024 179.787 32.1473C179.787 30.2706 180.228 28.5722 181.11 27.0521C182.011 25.532 183.24 24.3403 184.797 23.477C186.355 22.5949 188.1 22.1539 190.033 22.1539C191.966 22.1539 193.712 22.5855 195.269 23.4488C196.827 24.3121 198.047 25.5038 198.929 27.0239C199.83 28.5441 200.28 30.2519 200.28 32.1473C200.28 34.0428 199.83 35.7506 198.929 37.2707C198.047 38.7908 196.827 39.9825 195.269 40.8458C193.712 41.7091 191.966 42.1408 190.033 42.1408ZM190.033 40.8177C191.685 40.8177 193.177 40.4423 194.509 39.6917C195.842 38.941 196.893 37.9088 197.662 36.5951C198.432 35.2626 198.816 33.7801 198.816 32.1473C198.816 30.5146 198.432 29.0414 197.662 27.7277C196.893 26.3952 195.842 25.3537 194.509 24.603C193.177 23.8523 191.685 23.477 190.033 23.477C188.382 23.477 186.881 23.8523 185.529 24.603C184.197 25.3537 183.146 26.3952 182.377 27.7277C181.607 29.0414 181.222 30.5146 181.222 32.1473C181.222 33.7801 181.607 35.2626 182.377 36.5951C183.146 37.9088 184.197 38.941 185.529 39.6917C186.881 40.4423 188.382 40.8177 190.033 40.8177Z" fill="#336B9C"/>
<path d="M107.107 48.8259L100.83 63.2336H98.1953L91.8971 48.8259H94.7992L99.5949 59.9404L104.432 48.8259H107.107ZM117.51 59.8992H110.306L108.886 63.2336H106.128L112.611 48.8259H115.246L121.75 63.2336H118.951L117.51 59.8992ZM116.625 57.7998L113.908 51.5016L111.212 57.7998H116.625ZM128.049 63.4394C126.937 63.4394 125.86 63.2816 124.817 62.966C123.788 62.6504 122.972 62.2319 122.368 61.7105L123.294 59.6317C123.884 60.0982 124.604 60.4824 125.455 60.7843C126.32 61.0724 127.184 61.2165 128.049 61.2165C129.119 61.2165 129.915 61.045 130.436 60.702C130.971 60.3589 131.239 59.9061 131.239 59.3435C131.239 58.9319 131.088 58.5957 130.786 58.335C130.498 58.0606 130.127 57.8479 129.675 57.6969C129.222 57.546 128.604 57.3745 127.822 57.1824C126.724 56.9217 125.832 56.661 125.146 56.4002C124.474 56.1395 123.891 55.7347 123.397 55.1859C122.917 54.6233 122.677 53.8686 122.677 52.9218C122.677 52.126 122.889 51.4056 123.315 50.7607C123.754 50.102 124.405 49.5806 125.27 49.1964C126.148 48.8122 127.218 48.6201 128.481 48.6201C129.359 48.6201 130.223 48.7299 131.074 48.9494C131.925 49.169 132.659 49.4846 133.276 49.8962L132.433 51.975C131.801 51.6046 131.143 51.3233 130.457 51.1312C129.771 50.9391 129.105 50.843 128.46 50.843C127.404 50.843 126.615 51.0214 126.093 51.3782C125.586 51.7349 125.332 52.2083 125.332 52.7983C125.332 53.21 125.476 53.5462 125.764 53.8069C126.066 54.0676 126.443 54.2734 126.896 54.4243C127.349 54.5753 127.966 54.7468 128.748 54.9389C129.819 55.1859 130.697 55.4466 131.383 55.721C132.069 55.9817 132.652 56.3865 133.132 56.9354C133.626 57.4842 133.873 58.2252 133.873 59.1583C133.873 59.9541 133.654 60.6745 133.215 61.3194C132.789 61.9643 132.138 62.4789 131.259 62.8631C130.381 63.2473 129.311 63.4394 128.049 63.4394ZM139.248 51.09H134.473V48.8259H146.699V51.09H141.924V63.2336H139.248V51.09ZM161.509 48.8259V63.2336H159.307L151.362 53.4776V63.2336H148.707V48.8259H150.909L158.854 58.582V48.8259H161.509ZM176.176 60.9901V63.2336H165.37V48.8259H175.888V51.0694H168.046V54.8154H175.002V57.0177H168.046V60.9901H176.176ZM183.625 63.4394C182.513 63.4394 181.436 63.2816 180.393 62.966C179.364 62.6504 178.548 62.2319 177.944 61.7105L178.87 59.6317C179.46 60.0982 180.181 60.4824 181.031 60.7843C181.896 61.0724 182.76 61.2165 183.625 61.2165C184.695 61.2165 185.491 61.045 186.012 60.702C186.548 60.3589 186.815 59.9061 186.815 59.3435C186.815 58.9319 186.664 58.5957 186.362 58.335C186.074 58.0606 185.704 57.8479 185.251 57.6969C184.798 57.546 184.181 57.3745 183.398 57.1824C182.301 56.9217 181.409 56.661 180.723 56.4002C180.05 56.1395 179.467 55.7347 178.973 55.1859C178.493 54.6233 178.253 53.8686 178.253 52.9218C178.253 52.126 178.466 51.4056 178.891 50.7607C179.33 50.102 179.982 49.5806 180.846 49.1964C181.724 48.8122 182.795 48.6201 184.057 48.6201C184.935 48.6201 185.8 48.7299 186.65 48.9494C187.501 49.169 188.235 49.4846 188.853 49.8962L188.009 51.975C187.378 51.6046 186.719 51.3233 186.033 51.1312C185.347 50.9391 184.681 50.843 184.037 50.843C182.98 50.843 182.191 51.0214 181.67 51.3782C181.162 51.7349 180.908 52.2083 180.908 52.7983C180.908 53.21 181.052 53.5462 181.34 53.8069C181.642 54.0676 182.019 54.2734 182.472 54.4243C182.925 54.5753 183.543 54.7468 184.325 54.9389C185.395 55.1859 186.273 55.4466 186.959 55.721C187.645 55.9817 188.228 56.3865 188.709 56.9354C189.203 57.4842 189.45 58.2252 189.45 59.1583C189.45 59.9541 189.23 60.6745 188.791 61.3194C188.366 61.9643 187.714 62.4789 186.836 62.8631C185.958 63.2473 184.887 63.4394 183.625 63.4394ZM196.569 63.4394C195.458 63.4394 194.381 63.2816 193.338 62.966C192.309 62.6504 191.492 62.2319 190.888 61.7105L191.815 59.6317C192.405 60.0982 193.125 60.4824 193.976 60.7843C194.84 61.0724 195.705 61.2165 196.569 61.2165C197.64 61.2165 198.435 61.045 198.957 60.702C199.492 60.3589 199.759 59.9061 199.759 59.3435C199.759 58.9319 199.609 58.5957 199.307 58.335C199.019 58.0606 198.648 57.8479 198.195 57.6969C197.742 57.546 197.125 57.3745 196.343 57.1824C195.245 56.9217 194.353 56.661 193.667 56.4002C192.995 56.1395 192.412 55.7347 191.918 55.1859C191.437 54.6233 191.197 53.8686 191.197 52.9218C191.197 52.126 191.41 51.4056 191.835 50.7607C192.274 50.102 192.926 49.5806 193.791 49.1964C194.669 48.8122 195.739 48.6201 197.001 48.6201C197.88 48.6201 198.744 48.7299 199.595 48.9494C200.446 49.169 201.18 49.4846 201.797 49.8962L200.953 51.975C200.322 51.6046 199.663 51.3233 198.977 51.1312C198.291 50.9391 197.626 50.843 196.981 50.843C195.924 50.843 195.135 51.0214 194.614 51.3782C194.106 51.7349 193.852 52.2083 193.852 52.7983C193.852 53.21 193.996 53.5462 194.285 53.8069C194.586 54.0676 194.964 54.2734 195.417 54.4243C195.869 54.5753 196.487 54.7468 197.269 54.9389C198.339 55.1859 199.217 55.4466 199.904 55.721C200.59 55.9817 201.173 56.3865 201.653 56.9354C202.147 57.4842 202.394 58.2252 202.394 59.1583C202.394 59.9541 202.174 60.6745 201.735 61.3194C201.31 61.9643 200.658 62.4789 199.78 62.8631C198.902 63.2473 197.832 63.4394 196.569 63.4394Z" fill="#43C8FF"/>
<path d="M240.108 22V28.1603L224.943 63.0688H214.677L229.317 29.7444H215.786V36.4328H207.387V22H240.108Z" fill="#43C8FF"/>
<path d="M276.276 22V28.1603L261.112 63.0688H250.846L265.486 29.7444H251.954V36.4328H243.556V22H276.276Z" fill="#43C8FF"/>
<circle cx="25" cy="25" r="25" fill="#B6E0F2"/>
<path d="M59.947 64.8231L57.3245 73.8808H55.5364L58.0397 64.8231M59.947 64.8231H58.0397M59.947 64.8231H63.6424H67.3377M58.0397 64.8231H54.106V60.2942H60.9007M56.7285 62.6778H63.6424H70.5563M63.6424 43.2514V52.4283M63.6424 52.4283H62.6887M63.6424 52.4283H64.596M60.9007 60.2942H63.6424H66.3841M60.9007 60.2942L59.351 52.4283H62.6887M62.6887 52.4283C61.9735 51.5543 60.6623 49.1628 60.6623 46.5885C60.6623 44.0142 62.649 41.3048 63.6424 40.2719C64.6358 41.3048 66.6225 44.0142 66.6225 46.5885C66.6225 49.1628 65.3113 51.5543 64.596 52.4283M67.3377 64.8231L69.9603 73.8808H71.7483L69.245 64.8231M67.3377 64.8231H69.245M69.245 64.8231H73.1788V60.2942H66.3841M66.3841 60.2942L67.9338 52.4283H64.596M46 10V24.1825M47.3113 27.6387H46H44.6887M47.3113 27.6387V25.3743C47.3113 24.8976 46.7629 24.1825 46 24.1825M47.3113 27.6387C49.8146 27.6387 55.5364 30.4991 55.5364 32.5251V34.3129H46H36.4636V32.5251C36.4636 30.4991 42.1854 27.6387 44.6887 27.6387M46 24.1825C45.2371 24.1825 44.6887 24.8976 44.6887 25.3743V27.6387M41.0689 59.1024H47.1921C49.4305 59.1024 51.245 60.9166 51.245 63.1546C51.245 64.8004 50.2636 66.2171 48.8539 66.8515M41.0689 59.1024H40.0397M41.0689 59.1024L41.2238 58.0634C41.5024 56.1949 43.1072 54.8119 44.9967 54.8119H46.8344M40.0397 59.1024H31.9338M40.0397 59.1024V49.3296C40.0397 45.6436 37.051 42.6555 33.3642 42.6555H26.6887C23.002 42.6555 20.0132 45.6436 20.0132 49.3296V60.5326C20.0132 62.404 20.7836 64.0954 22.0245 65.3073M30.7943 67.2067H30.0265H29.9073H26.6887C24.8737 67.2067 23.2279 66.4825 22.0245 65.3073M30.7943 67.2067H39.8606M30.7943 67.2067L28.7152 54.8119M30.7943 67.2067L31.9338 74M39.8606 67.2067H47.1921C47.7843 67.2067 48.3468 67.0797 48.8539 66.8515M39.8606 67.2067L38.8477 74M53.8675 54.8119H46.8344M46.8344 54.8119L47.5541 59.1024M48.8535 66.8492L48.8539 66.8515M48.8539 66.8515L50.053 74M22.0245 65.3073L23.1046 58.0634C23.3832 56.1949 24.988 54.8119 26.8775 54.8119H28.7152M22.0245 65.3073L20.7285 74M35.7483 54.8119H28.7152M77.1126 62.6778H82V10.1192H10V62.6778H14.8874" stroke="#336B9C" stroke-width="1.2"/>
</svg>
