<svg width="70" height="70" viewBox="0 0 70 70" fill="none" xmlns="http://www.w3.org/2000/svg">
<g clip-path="url(#clip0)">
<path fill-rule="evenodd" clip-rule="evenodd" d="M69.4001 3.50102L58.5105 14.3906L62.5355 18.4156C63.9109 19.7924 64.3949 21.7981 63.7961 23.6506L59.9543 35.5234C59.4908 36.9589 58.6814 38.281 57.615 39.3474L27.5627 69.3997C27.1785 69.7839 26.6576 69.9999 26.1134 69.9999C25.5693 69.9999 25.047 69.7839 24.6628 69.3997L0.600199 45.3371C0.216017 44.9529 0 44.4306 0 43.8865C0 43.3423 0.216017 42.8214 0.600199 42.4373L30.6525 12.3849C31.7189 11.3185 33.041 10.5092 34.4766 10.0457L46.3493 6.20522C48.2018 5.60502 50.2075 6.08764 51.5843 7.46441L55.6093 11.4894L66.4989 0.599853C67.3001 -0.199951 68.5989 -0.199951 69.4001 0.599853C70.1999 1.40103 70.1999 2.69985 69.4001 3.50102ZM55.6093 11.4895L49.5595 17.5406C47.2735 16.4496 44.4489 16.8502 42.5581 18.741C40.16 21.1391 40.16 25.0424 42.5581 27.4419C43.7571 28.6409 45.3335 29.2411 46.9085 29.2411C48.4835 29.2411 50.0599 28.6409 51.2589 27.4419C53.1497 25.551 53.5503 22.725 52.4607 20.4391L58.5105 14.3907L55.6093 11.4895ZM48.3591 24.5426C47.5548 25.344 46.261 25.3435 45.4574 24.5426C44.6588 23.7425 44.6588 22.4407 45.4574 21.6406C46.2589 20.8419 47.5578 20.8419 48.3591 21.6406C49.1555 22.437 49.1649 23.7339 48.3591 24.5426ZM16.9531 50.039V38.0077C16.9531 37.7176 17.0683 37.4394 17.2734 37.2343C17.4785 37.0292 17.7567 36.9139 18.0469 36.9139H24.1562L24.9546 36.1154C25.5405 35.5328 26.005 34.8398 26.3213 34.0764C26.6375 33.3131 26.7991 32.4947 26.7969 31.6684V29.2577C26.7969 28.9676 26.9121 28.6894 27.1172 28.4843C27.3223 28.2792 27.6005 28.1639 27.8906 28.1639H30.0781C30.948 28.1649 31.782 28.511 32.3971 29.1261C33.0122 29.7413 33.3583 30.5753 33.3594 31.4452V34.7264C33.3596 35.0164 33.475 35.2944 33.6801 35.4995C33.885 35.7045 34.1631 35.8199 34.4531 35.8202H40.4688C41.0609 35.8203 41.6371 36.0127 42.1106 36.3685C42.584 36.7243 42.9293 37.2242 43.0942 37.7929C43.2592 38.3617 43.235 38.9687 43.0253 39.5226C42.8157 40.0765 42.4318 40.5473 41.9315 40.8643C42.1556 41.4535 42.1691 42.102 41.9697 42.6999C41.7704 43.2979 41.3705 43.8086 40.8378 44.1456C41.0618 44.7348 41.0753 45.3832 40.876 45.9812C40.6766 46.5792 40.2768 47.0899 39.744 47.4268C39.9015 47.8408 39.9559 48.2868 39.9028 48.7266C39.8495 49.1663 39.6904 49.5865 39.4388 49.9511C39.1873 50.3157 38.8511 50.6137 38.4588 50.8195C38.0667 51.0254 37.6304 51.1328 37.1875 51.1327H18.0469C17.7567 51.1327 17.4785 51.0175 17.2734 50.8123C17.0683 50.6073 16.9531 50.329 16.9531 50.039ZM37.574 48.0116C37.6766 48.1142 37.7342 48.2533 37.7342 48.3983C37.7342 48.5434 37.6766 48.6824 37.574 48.7851C37.4715 48.8876 37.3324 48.9452 37.1874 48.9452H25.703V38.4606L26.5015 37.6624C27.2911 36.877 27.9171 35.9429 28.3432 34.914C28.7694 33.8852 28.9873 32.7821 28.9842 31.6684V30.3514H30.078C30.368 30.3518 30.646 30.4671 30.851 30.6721C31.0561 30.8772 31.1715 31.1552 31.1717 31.4452V34.7264C31.1728 35.5964 31.5187 36.4304 32.134 37.0455C32.7491 37.6606 33.583 38.0067 34.453 38.0077H40.4686C40.6136 38.0077 40.7527 38.0653 40.8553 38.1679C40.9578 38.2705 41.0155 38.4095 41.0155 38.5546C41.0155 38.6996 40.9578 38.8387 40.8553 38.9413C40.7527 39.0438 40.6136 39.1015 40.4686 39.1015H39.3749C39.0847 39.1015 38.8066 39.2167 38.6014 39.4218C38.3963 39.6269 38.2811 39.9051 38.2811 40.1952C38.2811 40.4853 38.3963 40.7635 38.6014 40.9686C38.8066 41.1737 39.0847 41.289 39.3749 41.289C39.4257 41.289 39.4758 41.296 39.5239 41.3096C39.6129 41.3349 39.6949 41.3825 39.7615 41.4491C39.8288 41.5165 39.8769 41.5995 39.9019 41.6896C39.9095 41.7171 39.9149 41.7452 39.9181 41.7737C39.9205 41.7942 39.9217 41.8149 39.9217 41.8358C39.9217 41.9809 39.8641 42.1199 39.7615 42.2225C39.659 42.3251 39.5199 42.3827 39.3749 42.3827H38.2811C37.991 42.3827 37.7129 42.4979 37.5077 42.7031C37.3026 42.9081 37.1874 43.1864 37.1874 43.4765C37.1874 43.7665 37.3026 44.0448 37.5077 44.2498C37.7129 44.455 37.991 44.5702 38.2811 44.5702C38.4261 44.5702 38.5652 44.6278 38.6678 44.7304C38.7033 44.7659 38.7335 44.8059 38.7578 44.849C38.8034 44.9302 38.828 45.0223 38.828 45.1171C38.828 45.2621 38.7703 45.4012 38.6678 45.5038C38.5652 45.6063 38.4261 45.664 38.2811 45.664H37.1874C36.8972 45.664 36.6191 45.7792 36.4139 45.9843C36.2088 46.1894 36.0936 46.4676 36.0936 46.7577C36.0936 47.0478 36.2088 47.326 36.4139 47.5311C36.6191 47.7362 36.8972 47.8515 37.1874 47.8515C37.3324 47.8515 37.4715 47.9091 37.574 48.0116ZM19.1405 39.1015H23.5155V48.9452H19.1405V39.1015Z" fill="url(#paint0_linear)"/>
</g>
<defs>
<linearGradient id="paint0_linear" x1="2.41514e-07" y1="74.6666" x2="74.0542" y2="70.0765" gradientUnits="userSpaceOnUse">
<stop stop-color="#4481EB"/>
<stop offset="1" stop-color="#04BEFE"/>
</linearGradient>
<clipPath id="clip0">
<rect width="70" height="70" fill="white"/>
</clipPath>
</defs>
</svg>
