<svg width="70" height="70" viewBox="0 0 70 70" fill="none" xmlns="http://www.w3.org/2000/svg">
<g clip-path="url(#clip0)">
<path fill-rule="evenodd" clip-rule="evenodd" d="M33.7172 0H0V70H11.6216V53.6851H26.7963V70H38.2204V37.6079C36.2441 37.1425 34.38 36.3863 32.6758 35.387V37.1704H28.5742V32.2104C26.9186 30.5484 25.551 28.5991 24.5528 26.4439H20.9634V20.5249H22.8545C22.7495 19.6909 22.6953 18.841 22.6953 17.9785C22.6953 17.2141 22.7378 16.4596 22.8207 15.7173H20.9634V9.79836H24.4234C26.3053 5.56296 29.6037 2.09635 33.7172 0ZM5.74219 47.897H9.84375V41.978H5.74219V47.897ZM5.74219 37.1704H9.84375V31.2514H5.74219V37.1704ZM5.74219 26.4439H9.84375V20.5249H5.74219V26.4439ZM5.74219 15.7173H9.84375V9.79836H5.74219V15.7173ZM13.353 47.897H17.4546V41.978H13.353V47.897ZM13.353 37.1704H17.4546V31.2514H13.353V37.1704ZM13.353 26.4439H17.4546V20.5249H13.353V26.4439ZM13.353 15.7173H17.4546V9.79836H13.353V15.7173ZM20.9634 47.897H25.0649V41.978H20.9634V47.897ZM20.9634 37.1704H25.0649V31.2514H20.9634V37.1704ZM28.5742 47.897H32.6758V41.978H28.5742V47.897ZM41.7751 70V38.1445C43.9551 38.1445 47.4414 37.666 49.4238 36.4355L54.3305 41.0156L58.5156 45.1172V70H41.7751ZM48.1934 65.2036H52.2949V59.2847H48.1934V65.2036ZM48.1934 54.4771H52.2949V48.5581H48.1934V54.4771ZM22.6949 57.7867H15.7233V70.0001H22.6949V57.7867ZM42.8613 32.9492C51.1294 32.9492 57.832 26.2466 57.832 17.9785C57.832 9.71042 51.1294 3.00781 42.8613 3.00781C34.5932 3.00781 27.8906 9.71042 27.8906 17.9785C27.8906 26.2466 34.5932 32.9492 42.8613 32.9492ZM42.8613 35.6836C52.6396 35.6836 60.5664 27.7568 60.5664 17.9785C60.5664 8.20027 52.6396 0.273438 42.8613 0.273438C33.0831 0.273438 25.1562 8.20027 25.1562 17.9785C25.1562 27.7568 33.0831 35.6836 42.8613 35.6836ZM55.6445 17.9785C55.6445 25.0385 49.9213 30.7617 42.8613 30.7617C35.8014 30.7617 30.0781 25.0385 30.0781 17.9785C30.0781 10.9185 35.8014 5.19531 42.8613 5.19531C49.9213 5.19531 55.6445 10.9185 55.6445 17.9785ZM42.8613 14.734C43.6281 14.734 44.2518 14.1103 44.2518 13.3435C44.2518 12.74 43.8632 12.2304 43.3248 12.0384V10.0681H42.3978V12.0384C41.8595 12.2304 41.4708 12.74 41.4708 13.3435C41.4708 14.1103 42.0946 14.734 42.8613 14.734ZM41.4399 17.9785V17.515H34.9509V17.9785C34.9509 19.278 36.3763 20.296 38.1954 20.296C40.0146 20.296 41.4399 19.278 41.4399 17.9785ZM47.5272 20.296C45.7081 20.296 44.2827 19.278 44.2827 17.9785V17.515H50.7717V17.9785C50.7717 19.278 49.3464 20.296 47.5272 20.296ZM47.0328 23.6827L42.8613 22.1183L38.6898 23.6827V24.9619H37.7628V25.8889H47.9598V24.9619H47.0328V23.6827ZM37.3969 16.588H36.3983L37.5107 13.807H34.9509V12.88H40.5598C40.5465 12.9453 40.5359 13.0117 40.5281 13.0788C40.5181 13.1657 40.5129 13.254 40.5129 13.3435C40.5129 13.5022 40.5292 13.6572 40.5598 13.807H38.8801L39.9925 16.588H38.994L38.1954 14.5917L37.3969 16.588ZM42.3978 15.6141V21.3022L42.8613 21.1284L43.3248 21.3022V15.6141C43.175 15.6447 43.02 15.661 42.8613 15.661C42.7959 15.661 42.7311 15.6582 42.667 15.6528C42.5757 15.6451 42.4858 15.6321 42.3978 15.6141ZM45.2097 13.3435C45.2097 13.1848 45.1934 13.0299 45.1628 12.88H50.7717V13.807H48.2119L49.3243 16.588H48.3258L47.5272 14.5917L46.7286 16.588H45.7301L46.8425 13.807H45.1628C45.1934 13.6572 45.2097 13.5022 45.2097 13.3435ZM60.0238 28.4708L68.5831 37.0301C69.497 37.9441 70.0004 39.1591 70.0004 40.4515C70.0004 41.744 69.497 42.9591 68.583 43.8729C67.6693 44.7868 66.4542 45.2902 65.1617 45.2902C63.8692 45.2902 62.6541 44.7869 61.7404 43.873L53.1825 35.3152C55.9743 33.6162 58.3261 31.2634 60.0238 28.4708Z" fill="url(#paint0_linear)"/>
</g>
<defs>
<linearGradient id="paint0_linear" x1="2.41515e-07" y1="74.6668" x2="74.0546" y2="70.0767" gradientUnits="userSpaceOnUse">
<stop stop-color="#4481EB"/>
<stop offset="1" stop-color="#04BEFE"/>
</linearGradient>
<clipPath id="clip0">
<rect width="70" height="70" fill="white"/>
</clipPath>
</defs>
</svg>
