<svg width="70" height="70" viewBox="0 0 70 70" fill="none" xmlns="http://www.w3.org/2000/svg">
<g clip-path="url(#clip0)">
<path fill-rule="evenodd" clip-rule="evenodd" d="M49.399 43.8635L46.198 49.0577L40.1435 48.3269L35.0003 51.6094L29.8571 48.3269L23.8025 49.0578L20.6015 43.8636L14.8249 41.8935L14.1849 35.8263L9.83887 31.5479L11.9052 25.8047L9.83887 20.0616L14.185 15.7829L14.825 9.71592L20.6016 7.7458L23.8026 2.55158L29.8571 3.28262L35.0003 0L40.1435 3.28234L46.1981 2.55131L49.3991 7.74566L55.1758 9.71578L55.8157 15.7828L60.1618 20.0614L58.0954 25.8046L60.1618 31.5476L55.8156 35.8262L55.1756 41.8934L49.399 43.8635ZM35.0003 8.10934C25.2431 8.10934 17.3049 16.0475 17.3049 25.8047C17.3049 35.5619 25.2431 43.5001 35.0003 43.5001C44.7575 43.5001 52.6957 35.5619 52.6957 25.8047C52.6957 16.0475 44.7575 8.10934 35.0003 8.10934ZM21.6866 53.4472L28.889 52.5777L33.5374 55.5445L28.9125 70L21.0532 63.7192L11.0078 64.2716L16.5877 46.831L17.8813 47.272L21.6866 53.4472ZM52.1192 47.2722L48.3138 53.4472L41.1116 52.5777L36.4631 55.5445L41.0881 70L48.9473 63.7192L58.9927 64.2716L53.4128 46.831L52.1192 47.2722ZM35.0006 12.2136C27.5063 12.2136 21.4093 18.3106 21.4093 25.8048C21.4093 33.299 27.5063 39.396 35.0006 39.396C42.4948 39.396 48.5918 33.299 48.5918 25.8048C48.5918 18.3106 42.4948 12.2136 35.0006 12.2136ZM39.0299 27.2389L42.2307 24.9142C42.4523 24.7532 42.6173 24.5262 42.702 24.2657C42.7868 24.0052 42.7868 23.7246 42.7021 23.4641C42.6175 23.2036 42.4524 22.9767 42.2308 22.8156C42.009 22.6546 41.7421 22.5679 41.4682 22.5678H37.5117L36.289 18.8064C36.2042 18.546 36.0392 18.319 35.8176 18.1581C35.5959 17.9971 35.3289 17.9104 35.0549 17.9104C34.781 17.9104 34.5141 17.9971 34.2923 18.1581C34.0707 18.319 33.9057 18.546 33.821 18.8064L32.5981 22.5678H28.6418C28.3679 22.5679 28.1008 22.6546 27.8792 22.8156C27.6576 22.9767 27.4926 23.2036 27.4079 23.4641C27.3233 23.7246 27.3233 24.0052 27.4079 24.2657C27.4926 24.5262 27.6576 24.7532 27.8792 24.9142L31.08 27.2389L29.8572 31.0003C29.7723 31.2609 29.7722 31.5416 29.8568 31.8022C29.9415 32.0629 30.1065 32.29 30.3283 32.4511C30.55 32.6122 30.8172 32.6989 31.0913 32.6989C31.3654 32.6989 31.6326 32.612 31.8542 32.4508L35.0549 30.1262L38.2557 32.4508C38.4775 32.612 38.7445 32.6989 39.0186 32.6989C39.2928 32.6989 39.5599 32.6122 39.7816 32.4511C40.0034 32.29 40.1684 32.0629 40.2531 31.8022C40.3377 31.5416 40.3376 31.2609 40.2527 31.0003L39.0299 27.2389Z" fill="url(#paint0_linear)"/>
</g>
<defs>
<linearGradient id="paint0_linear" x1="9.83887" y1="74.6667" x2="63.175" y2="72.2901" gradientUnits="userSpaceOnUse">
<stop stop-color="#4481EB"/>
<stop offset="1" stop-color="#04BEFE"/>
</linearGradient>
<clipPath id="clip0">
<rect width="70" height="70" fill="white"/>
</clipPath>
</defs>
</svg>
